<svg width="96" height="96" viewBox="0 0 96 96" fill="none" xmlns="http://www.w3.org/2000/svg">
<g filter="url(#filter0_d)">
<rect x="12" y="8" width="72" height="72" rx="36" fill="#1998FF"/>
</g>
<path fill-rule="evenodd" clip-rule="evenodd" d="M34.2876 35.4411C34.3623 32.0054 35.7269 30.3692 38.6785 30.3692C41.0592 30.3692 53.2169 30.4508 56.267 30.5169C59.7454 30.5916 61.36 32.5659 61.36 35.7498C61.36 36.5945 61.36 56.47 61.36 56.47L34 55.8283C34 55.8283 34.2695 36.2693 34.2876 35.4411ZM58.4745 34.7234L36.9913 34.2807C36.9913 34.2807 36.7322 41.1767 36.8017 42.4303C36.9114 44.4232 37.1036 46.1406 39.8176 46.1406C42.5317 46.1406 52.9237 46.027 55.9768 46.027C58.1476 46.027 58.449 44.6931 58.6166 42.9338C58.7388 41.6461 58.4745 34.7234 58.4745 34.7234ZM56.9903 53.3314C59.7855 53.3314 59.7121 48.8736 56.7869 48.8736C53.9178 48.8736 53.6734 53.3314 56.9903 53.3314ZM39.7827 54.0746C43.5098 54.0746 43.4118 48.1309 39.5119 48.1309C35.6859 48.1313 35.3611 54.0746 39.7827 54.0746ZM55.7937 26.2094L56.1603 29.0716L39.8017 29.0979L40.1679 26.3514L42.7321 26.3281L47.6917 16L50.6605 17.2739L46.6164 26.2927L48.9271 26.2716L53.7114 16.6391L56.3857 18.062L52.776 26.2366L55.7937 26.2094ZM40.4485 60.8833C40.4485 63.8029 34.5195 63.8029 34.5195 60.8833V57.9555L40.4485 58.0751V60.8833ZM60.9454 60.8833C60.9454 63.8029 55.0168 63.8029 55.0168 60.8833V58.1386L60.9454 58.4322V60.8833Z" fill="white"/>
<defs>
<filter id="filter0_d" x="0" y="0" width="96" height="96" filterUnits="userSpaceOnUse" color-interpolation-filters="sRGB">
<feFlood flood-opacity="0" result="BackgroundImageFix"/>
<feColorMatrix in="SourceAlpha" type="matrix" values="0 0 0 0 0 0 0 0 0 0 0 0 0 0 0 0 0 0 127 0"/>
<feOffset dy="4"/>
<feGaussianBlur stdDeviation="6"/>
<feColorMatrix type="matrix" values="0 0 0 0 0.823529 0 0 0 0 0.839216 0 0 0 0 0.85098 0 0 0 0.5 0"/>
<feBlend mode="normal" in2="BackgroundImageFix" result="effect1_dropShadow"/>
<feBlend mode="normal" in="SourceGraphic" in2="effect1_dropShadow" result="shape"/>
</filter>
</defs>
</svg>
