<svg width="96" height="96" viewBox="0 0 96 96" fill="none" xmlns="http://www.w3.org/2000/svg">
<g filter="url(#filter0_d)">
<rect x="12" y="8" width="72" height="72" rx="36" fill="#1998FF"/>
</g>
<path d="M47.983 27.333C38.783 27.333 31.333 34.7997 31.333 43.9997C31.333 53.1997 38.783 60.6663 47.983 60.6663C57.1997 60.6663 64.6663 53.1997 64.6663 43.9997C64.6663 34.7997 57.1997 27.333 47.983 27.333ZM47.9997 57.333C40.633 57.333 34.6663 51.3663 34.6663 43.9997C34.6663 36.633 40.633 30.6663 47.9997 30.6663C55.3663 30.6663 61.333 36.633 61.333 43.9997C61.333 51.3663 55.3663 57.333 47.9997 57.333Z" fill="white"/>
<path d="M48.833 35.667H46.333V45.667L55.083 50.917L56.333 48.867L48.833 44.417V35.667Z" fill="white"/>
<defs>
<filter id="filter0_d" x="0" y="0" width="96" height="96" filterUnits="userSpaceOnUse" color-interpolation-filters="sRGB">
<feFlood flood-opacity="0" result="BackgroundImageFix"/>
<feColorMatrix in="SourceAlpha" type="matrix" values="0 0 0 0 0 0 0 0 0 0 0 0 0 0 0 0 0 0 127 0"/>
<feOffset dy="4"/>
<feGaussianBlur stdDeviation="6"/>
<feColorMatrix type="matrix" values="0 0 0 0 0.823529 0 0 0 0 0.839216 0 0 0 0 0.85098 0 0 0 0.5 0"/>
<feBlend mode="normal" in2="BackgroundImageFix" result="effect1_dropShadow"/>
<feBlend mode="normal" in="SourceGraphic" in2="effect1_dropShadow" result="shape"/>
</filter>
</defs>
</svg>
