<svg width="96" height="96" viewBox="0 0 96 96" fill="none" xmlns="http://www.w3.org/2000/svg">
<g filter="url(#filter0_d)">
<rect x="12" y="8" width="72" height="72" rx="36" fill="#1998FF"/>
</g>
<path fill-rule="evenodd" clip-rule="evenodd" d="M68.5894 48.8149C68.8512 45.5511 66.839 41.9769 62.5589 41.9769C57.9876 41.9769 55.891 46.213 56.7895 49.6731L40.8771 49.5712C41.5423 46.1302 39.5632 41.9765 34.949 41.9765C30.6681 41.9765 28.5573 45.6922 29.0449 49.0068L25.0892 47.8497L25 38.7414C25 38.7414 30.3483 38.031 33.2542 36.2226C36.2629 34.3503 38.0592 31 46.0583 31C51.8668 31 56.6879 35.0893 59.6206 38.5423C66.1289 38.8655 73 41.4298 73 41.4298L71.7801 48.4619L68.5894 48.8149ZM45.6956 33.7193C43.3247 33.7193 40.6513 34.511 38.5822 36.0533L38.8708 37.8575L55.4135 38.3621C53.1962 35.7865 49.9332 33.7193 45.6956 33.7193ZM34.9659 43.4805C40.8669 43.4805 41.0152 52.5678 35.3753 52.5678C28.6863 52.5678 29.1777 43.4805 34.9659 43.4805ZM35.1529 49.9185C37.5027 49.9185 37.441 46.1321 34.9824 46.1321C32.5706 46.1317 32.3659 49.9185 35.1529 49.9185ZM62.5758 43.4805C68.4761 43.4805 68.6244 52.5678 62.9848 52.5678C56.2959 52.5678 56.7877 43.4805 62.5758 43.4805ZM62.7625 49.9185C65.1123 49.9185 65.0505 46.1321 62.5924 46.1321C60.1805 46.1317 59.9754 49.9185 62.7625 49.9185Z" fill="white"/>
<defs>
<filter id="filter0_d" x="0" y="0" width="96" height="96" filterUnits="userSpaceOnUse" color-interpolation-filters="sRGB">
<feFlood flood-opacity="0" result="BackgroundImageFix"/>
<feColorMatrix in="SourceAlpha" type="matrix" values="0 0 0 0 0 0 0 0 0 0 0 0 0 0 0 0 0 0 127 0"/>
<feOffset dy="4"/>
<feGaussianBlur stdDeviation="6"/>
<feColorMatrix type="matrix" values="0 0 0 0 0.823529 0 0 0 0 0.839216 0 0 0 0 0.85098 0 0 0 0.5 0"/>
<feBlend mode="normal" in2="BackgroundImageFix" result="effect1_dropShadow"/>
<feBlend mode="normal" in="SourceGraphic" in2="effect1_dropShadow" result="shape"/>
</filter>
</defs>
</svg>
