<svg width="96" height="96" viewBox="0 0 96 96" fill="none" xmlns="http://www.w3.org/2000/svg">
<g filter="url(#filter0_d)">
<rect x="12" y="8" width="72" height="72" rx="36" fill="#1998FF"/>
</g>
<path fill-rule="evenodd" clip-rule="evenodd" d="M60.8577 60.8806C60.8577 60.8806 57.9885 61.9552 57.5888 59.3584C57.1836 56.7285 56.0177 48.7244 56.0177 48.7244L55.0107 48.783C55.0107 48.783 53.9999 57.4814 53.8299 59.5533C53.6385 61.8883 50.8003 60.9793 50.8003 60.9793L51.0589 44.9892C51.0589 44.9892 48.5249 42.8304 48.847 40.1247C48.9274 39.4473 48.9622 38.889 48.9622 38.889L61.4495 36.3809C61.4495 36.3809 61.8668 39.0435 61.9727 39.9588C62.3017 42.807 59.5514 44.8551 59.5514 44.8551L60.8577 60.8806ZM46.3482 37.224L46.6068 60.9793C46.6068 60.9793 43.7686 61.8883 43.5769 59.5533C43.4069 57.481 42.3964 48.783 42.3964 48.783L41.3895 48.7244C41.3895 48.7244 40.2235 56.7285 39.8183 59.3584C39.4186 61.9552 36.5494 60.8806 36.5494 60.8806L37.8557 44.8551C37.8557 44.8551 35.1199 42.808 35.4344 39.9588C35.6655 37.8679 36.1559 35.2442 36.1559 35.2442C36.1559 35.2442 38.4716 33.1771 43.5765 33.1771C45.7816 33.1771 59.4656 33.1833 59.4656 33.1833C59.4656 33.1833 61.0247 33.5496 60.2539 35.1432L46.3482 37.224ZM51.9445 28.6557C51.9445 24.0515 58.0399 24.7422 57.5261 28.8405C57.0312 32.7843 51.9445 33.3196 51.9445 28.6557ZM38.9975 28.8405C38.4837 24.7422 44.5794 24.0515 44.5794 28.6557C44.5791 33.3196 39.492 32.7843 38.9975 28.8405ZM41.4398 22.3817L41.6895 16.5622L44.4563 16.9981L42.7182 22.6027L41.4398 22.3817ZM35.3293 15.819L38.1809 15L39.7872 22.5189L38.484 23.1356L35.3293 15.819ZM36.5466 24.8026L32 22.471L33.6395 20.1836L37.1318 23.7297L36.5466 24.8026Z" fill="white"/>
<defs>
<filter id="filter0_d" x="0" y="0" width="96" height="96" filterUnits="userSpaceOnUse" color-interpolation-filters="sRGB">
<feFlood flood-opacity="0" result="BackgroundImageFix"/>
<feColorMatrix in="SourceAlpha" type="matrix" values="0 0 0 0 0 0 0 0 0 0 0 0 0 0 0 0 0 0 127 0"/>
<feOffset dy="4"/>
<feGaussianBlur stdDeviation="6"/>
<feColorMatrix type="matrix" values="0 0 0 0 0.823529 0 0 0 0 0.839216 0 0 0 0 0.85098 0 0 0 0.5 0"/>
<feBlend mode="normal" in2="BackgroundImageFix" result="effect1_dropShadow"/>
<feBlend mode="normal" in="SourceGraphic" in2="effect1_dropShadow" result="shape"/>
</filter>
</defs>
</svg>
