<svg width="96" height="96" viewBox="0 0 96 96" fill="none" xmlns="http://www.w3.org/2000/svg">
<g filter="url(#filter0_d)">
<rect x="12" y="8" width="72" height="72" rx="36" fill="#1998FF"/>
</g>
<path fill-rule="evenodd" clip-rule="evenodd" d="M67.4703 46.1276L71.14 46.1654L70.5814 52.3101L67.4428 53.095C67.2563 50.108 65.101 47.2408 61.2534 47.2408C57.1377 47.2408 55.0414 50.3974 54.966 53.5368L42.0666 53.6011C42.1064 50.4404 39.9281 47.2404 35.8633 47.2404C31.9169 47.2404 29.8308 50.1429 29.5992 53.1495L26 51.7568C26 51.7568 26.4828 37.6796 26.4828 35.7021C26.4828 33.7443 28.3816 32.2233 31.0808 32.2233C38.1989 32.2233 56.9882 31.9779 63.9411 32.0016C66.9223 32.0119 68.0846 32.827 68.7584 35.1377C68.7998 35.2799 68.8768 35.5373 68.9777 35.873L63.56 35.8886L63.9534 43.0809L67.4703 46.1276ZM29.5697 35.9882L29.6029 42.7178L60.7595 42.501L60.7784 35.8972L29.5697 35.9882ZM35.846 48.7916C41.8617 48.7916 42.3728 58.1688 35.421 58.1688C29.5599 58.1688 29.714 48.7916 35.846 48.7916ZM35.6518 55.4348C38.5481 55.4348 38.3354 51.5277 35.8288 51.5277C33.2739 51.5277 33.2099 55.4348 35.6518 55.4348ZM61.2358 48.7916C67.251 48.7916 67.7625 58.1688 60.8107 58.1688C54.9496 58.1688 55.1033 48.7916 61.2358 48.7916ZM61.0415 55.4348C63.9378 55.4348 63.7255 51.5277 61.2185 51.5277C58.6632 51.5277 58.5992 55.4348 61.0415 55.4348Z" fill="white"/>
<defs>
<filter id="filter0_d" x="0" y="0" width="96" height="96" filterUnits="userSpaceOnUse" color-interpolation-filters="sRGB">
<feFlood flood-opacity="0" result="BackgroundImageFix"/>
<feColorMatrix in="SourceAlpha" type="matrix" values="0 0 0 0 0 0 0 0 0 0 0 0 0 0 0 0 0 0 127 0"/>
<feOffset dy="4"/>
<feGaussianBlur stdDeviation="6"/>
<feColorMatrix type="matrix" values="0 0 0 0 0.823529 0 0 0 0 0.839216 0 0 0 0 0.85098 0 0 0 0.5 0"/>
<feBlend mode="normal" in2="BackgroundImageFix" result="effect1_dropShadow"/>
<feBlend mode="normal" in="SourceGraphic" in2="effect1_dropShadow" result="shape"/>
</filter>
</defs>
</svg>
