<svg width="96" height="96" viewBox="0 0 96 96" fill="none" xmlns="http://www.w3.org/2000/svg">
<g filter="url(#filter0_d)">
<rect x="12" y="8" width="72" height="72" rx="36" fill="#1998FF"/>
</g>
<path fill-rule="evenodd" clip-rule="evenodd" d="M57.6295 57.4184L39.0156 57.0934C39.0156 57.0934 37.5564 52.3323 33.7744 52.3323C33.7744 51.6341 33 42.3199 33 42.3199C33 42.3199 34.6399 32.6621 34.7632 31.7483C35.1033 29.229 35.8638 28.3522 38.0338 27.9964C38.4973 27.9201 40.5571 27.5996 42.6948 27.2681C43.1487 24.9953 44.9519 23 47.9321 23C50.9562 23 52.7137 24.977 53.2089 27.2367C55.3262 27.5743 57.41 27.9084 57.9082 27.9968C60.4598 28.4472 60.9193 29.5605 61.3928 31.8681C61.5661 32.7114 62.9421 41.9332 62.9421 41.9332C62.9421 41.9332 62.6333 51.3118 62.6333 52.7204C58.1735 52.7199 57.6295 57.4184 57.6295 57.4184ZM39.8588 48.3016C43.5821 48.3016 43.4841 42.3391 39.5888 42.3391C35.7685 42.3391 35.4435 48.3016 39.8588 48.3016ZM47.9534 26.0638C44.968 26.0638 44.7141 30.7065 48.1642 30.7065C51.0725 30.706 50.9967 26.0638 47.9534 26.0638ZM58.6827 33.0289L37.6462 32.8725L36.8717 38.0619L59.4576 37.8314L58.6827 33.0289ZM57.3873 43.0844C54.5213 43.0844 54.2778 47.5563 57.5898 47.5563C60.3818 47.5563 60.3082 43.0844 57.3873 43.0844ZM41.4051 59.3192V60.7657L38.1741 64.985L33.865 64.8888L33.4395 62.3747L38.7861 59.2569L41.4051 59.3192ZM63 62.4426L62.7225 65.0216L58.596 65.2159L54.5553 60.7483V59.26L57.5994 59.1955L63 62.4426Z" fill="white"/>
<defs>
<filter id="filter0_d" x="0" y="0" width="96" height="96" filterUnits="userSpaceOnUse" color-interpolation-filters="sRGB">
<feFlood flood-opacity="0" result="BackgroundImageFix"/>
<feColorMatrix in="SourceAlpha" type="matrix" values="0 0 0 0 0 0 0 0 0 0 0 0 0 0 0 0 0 0 127 0"/>
<feOffset dy="4"/>
<feGaussianBlur stdDeviation="6"/>
<feColorMatrix type="matrix" values="0 0 0 0 0.823529 0 0 0 0 0.839216 0 0 0 0 0.85098 0 0 0 0.5 0"/>
<feBlend mode="normal" in2="BackgroundImageFix" result="effect1_dropShadow"/>
<feBlend mode="normal" in="SourceGraphic" in2="effect1_dropShadow" result="shape"/>
</filter>
</defs>
</svg>
