<svg width="96" height="96" viewBox="0 0 96 96" fill="none" xmlns="http://www.w3.org/2000/svg">
<g filter="url(#filter0_d)">
<rect x="12" y="8" width="72" height="72" rx="36" fill="#1998FF"/>
</g>
<path fill-rule="evenodd" clip-rule="evenodd" d="M65.1895 53.3147L31.8083 53.5596C31.8083 53.5596 30.982 46.457 31.0003 45.6086C31.0603 42.8333 31.9439 41.2095 33.7904 40.6451C34.2391 39.317 35.008 37.1005 35.5833 35.749C36.483 33.6338 38.0029 31.4847 42.1571 30.8694L43.493 27.0822L53.5043 27L54.2693 30.8246C57.8286 31.2703 59.8046 32.8911 61.1875 36.3056C61.7432 37.6784 62.4181 39.5905 62.8625 40.879C64.7381 41.6583 65.63 43.3803 65.63 45.7734C65.6304 46.6387 65.1895 53.3147 65.1895 53.3147ZM37.6415 50.7321C42.1771 50.7321 42.2058 43.6365 37.5615 43.6365C32.8998 43.636 32.6745 50.7321 37.6415 50.7321ZM58.4122 37.681C57.1459 34.5548 56.0257 33.6503 51.9545 33.6503H44.7002C39.8228 33.6503 39.0987 35.3872 38.3416 37.1653C37.9781 38.0198 37.5184 39.2822 37.1231 40.4115C42.0362 40.4007 55.1085 40.3633 59.4341 40.4011C59.0971 39.4601 58.7305 38.4681 58.4122 37.681ZM59.445 44.5236C55.9487 44.5236 55.78 49.8454 59.5054 49.8454C62.9065 49.845 62.9286 44.5236 59.445 44.5236ZM39.9871 57.6859C39.9871 60.6756 31.8235 60.6756 31.8235 57.6859V55.4403L39.9871 55.1629V57.6859ZM65.1964 57.6859C65.1964 60.6756 57.3698 60.6756 57.3698 57.6859V55.2525L65.1964 55.4203V57.6859Z" fill="white"/>
<defs>
<filter id="filter0_d" x="0" y="0" width="96" height="96" filterUnits="userSpaceOnUse" color-interpolation-filters="sRGB">
<feFlood flood-opacity="0" result="BackgroundImageFix"/>
<feColorMatrix in="SourceAlpha" type="matrix" values="0 0 0 0 0 0 0 0 0 0 0 0 0 0 0 0 0 0 127 0"/>
<feOffset dy="4"/>
<feGaussianBlur stdDeviation="6"/>
<feColorMatrix type="matrix" values="0 0 0 0 0.823529 0 0 0 0 0.839216 0 0 0 0 0.85098 0 0 0 0.5 0"/>
<feBlend mode="normal" in2="BackgroundImageFix" result="effect1_dropShadow"/>
<feBlend mode="normal" in="SourceGraphic" in2="effect1_dropShadow" result="shape"/>
</filter>
</defs>
</svg>
