<svg width="96" height="96" viewBox="0 0 96 96" fill="none" xmlns="http://www.w3.org/2000/svg"><rect x="12" y="8" width="72" height="72" rx="36" fill="#1998FF" filter="url(#a)"/><path fill-rule="evenodd" clip-rule="evenodd" d="M67.47 46.128l3.67.037-.559 6.145-3.138.785c-.187-2.987-2.342-5.854-6.19-5.854-4.115 0-6.212 3.156-6.287 6.296l-12.9.064c.04-3.16-2.138-6.36-6.203-6.36-3.946 0-6.032 2.902-6.264 5.909L26 51.757s.483-14.077.483-16.055c0-1.958 1.899-3.479 4.598-3.479 7.118 0 25.907-.245 32.86-.221 2.981.01 4.144.825 4.817 3.136l.22.735-5.418.016.393 7.192 3.517 3.047zm-37.9-10.14l.033 6.73L60.76 42.5l.018-6.604-31.208.091zm6.276 12.804c6.016 0 6.527 9.377-.425 9.377-5.861 0-5.707-9.377.425-9.377zm-.194 6.643c2.896 0 2.683-3.907.177-3.907-2.555 0-2.62 3.907-.177 3.907zm25.584-6.643c6.015 0 6.527 9.377-.425 9.377-5.861 0-5.708-9.377.425-9.377zm-.194 6.643c2.896 0 2.683-3.907.176-3.907-2.555 0-2.619 3.907-.177 3.907z" fill="#fff"/><defs><filter id="a" x="0" y="0" width="96" height="96" filterUnits="userSpaceOnUse" color-interpolation-filters="sRGB"><feFlood flood-opacity="0" result="BackgroundImageFix"/><feColorMatrix in="SourceAlpha" values="0 0 0 0 0 0 0 0 0 0 0 0 0 0 0 0 0 0 127 0"/><feOffset dy="4"/><feGaussianBlur stdDeviation="6"/><feColorMatrix values="0 0 0 0 0.823529 0 0 0 0 0.839216 0 0 0 0 0.85098 0 0 0 0.5 0"/><feBlend in2="BackgroundImageFix" result="effect1_dropShadow"/><feBlend in="SourceGraphic" in2="effect1_dropShadow" result="shape"/></filter></defs></svg>