<svg width="96" height="96" viewBox="0 0 96 96" fill="none" xmlns="http://www.w3.org/2000/svg"><rect x="12" y="8" width="72" height="72" rx="36" fill="#1998FF" filter="url(#a)"/><path fill-rule="evenodd" clip-rule="evenodd" d="M60.858 60.88s-2.87 1.075-3.27-1.522c-.404-2.63-1.57-10.634-1.57-10.634l-1.007.059S54 57.481 53.83 59.553c-.191 2.335-3.03 1.426-3.03 1.426l.259-15.99s-2.534-2.159-2.212-4.864c.08-.678.115-1.236.115-1.236l12.487-2.508s.418 2.663.524 3.578c.329 2.848-2.422 4.896-2.422 4.896l1.307 16.026zm-14.51-23.656l.259 23.755s-2.838.91-3.03-1.426c-.17-2.072-1.18-10.77-1.18-10.77l-1.008-.059s-1.166 8.005-1.57 10.634c-.4 2.597-3.27 1.523-3.27 1.523l1.307-16.026s-2.736-2.047-2.422-4.896c.232-2.091.722-4.715.722-4.715s2.316-2.067 7.42-2.067l15.89.006s1.559.367.788 1.96l-13.906 2.081zm5.596-8.568c0-4.604 6.096-3.914 5.582.184-.495 3.944-5.582 4.48-5.582-.184zm-12.947.184c-.513-4.098 5.582-4.788 5.582-.184 0 4.664-5.087 4.128-5.581.184zm2.443-6.458l.25-5.82 2.766.436-1.738 5.605-1.278-.221zm-6.11-6.563L38.18 15l1.607 7.519-1.303.617-3.155-7.317zm1.217 8.984L32 22.47l1.64-2.287 3.492 3.546-.585 1.073z" fill="#fff"/><defs><filter id="a" x="0" y="0" width="96" height="96" filterUnits="userSpaceOnUse" color-interpolation-filters="sRGB"><feFlood flood-opacity="0" result="BackgroundImageFix"/><feColorMatrix in="SourceAlpha" values="0 0 0 0 0 0 0 0 0 0 0 0 0 0 0 0 0 0 127 0"/><feOffset dy="4"/><feGaussianBlur stdDeviation="6"/><feColorMatrix values="0 0 0 0 0.823529 0 0 0 0 0.839216 0 0 0 0 0.85098 0 0 0 0.5 0"/><feBlend in2="BackgroundImageFix" result="effect1_dropShadow"/><feBlend in="SourceGraphic" in2="effect1_dropShadow" result="shape"/></filter></defs></svg>