<svg width="96" height="96" viewBox="0 0 96 96" fill="none" xmlns="http://www.w3.org/2000/svg"><rect x="12" y="8" width="72" height="72" rx="36" fill="#1998FF" filter="url(#a)"/><path d="M37.891 45.912h3.816v3.78h-3.816v2.34h3.816V57h3.06v-4.968h6.228v-2.34h-6.228v-3.78h3.78c6.156 0 9.072-2.952 9.072-7.02 0-3.924-2.124-7.164-9.324-7.164-1.584 0-5.184.072-6.588.072v11.772h-3.816v2.34zm10.692-11.304c3.996 0 5.796 1.512 5.796 4.5 0 3.024-2.232 4.464-5.94 4.464h-3.672V34.68c1.188-.036 2.808-.072 3.816-.072z" fill="#fff"/><defs><filter id="a" x="0" y="0" width="96" height="96" filterUnits="userSpaceOnUse" color-interpolation-filters="sRGB"><feFlood flood-opacity="0" result="BackgroundImageFix"/><feColorMatrix in="SourceAlpha" values="0 0 0 0 0 0 0 0 0 0 0 0 0 0 0 0 0 0 127 0"/><feOffset dy="4"/><feGaussianBlur stdDeviation="6"/><feColorMatrix values="0 0 0 0 0.823529 0 0 0 0 0.839216 0 0 0 0 0.85098 0 0 0 0.5 0"/><feBlend in2="BackgroundImageFix" result="effect1_dropShadow"/><feBlend in="SourceGraphic" in2="effect1_dropShadow" result="shape"/></filter></defs></svg>