<svg width="96" height="96" viewBox="0 0 96 96" fill="none" xmlns="http://www.w3.org/2000/svg"><rect x="12" y="8" width="72" height="72" rx="36" fill="#1998FF" filter="url(#a)"/><path fill-rule="evenodd" clip-rule="evenodd" d="M34.288 35.441c.074-3.436 1.439-5.072 4.39-5.072 2.381 0 14.539.082 17.589.148 3.478.075 5.093 2.049 5.093 5.233v20.72L34 55.828s.27-19.559.288-20.387zm24.187-.718l-21.484-.442s-.259 6.896-.19 8.15c.11 1.992.303 3.71 3.017 3.71s13.106-.114 16.159-.114c2.17 0 2.472-1.334 2.64-3.093.122-1.288-.142-8.21-.142-8.21zM56.99 53.331c2.795 0 2.722-4.457-.203-4.457-2.87 0-3.114 4.457.203 4.457zm-17.207.744c3.727 0 3.629-5.944-.271-5.944-3.826 0-4.15 5.944.27 5.944zm16.01-27.866l.367 2.863-16.358.026.366-2.747 2.564-.023L47.692 16l2.968 1.274-4.044 9.019 2.311-.021 4.784-9.633 2.675 1.423-3.61 8.175 3.018-.028zM40.45 60.883c0 2.92-5.93 2.92-5.93 0v-2.928l5.93.12v2.808zm20.496 0c0 2.92-5.928 2.92-5.928 0V58.14l5.928.293v2.451z" fill="#fff"/><defs><filter id="a" x="0" y="0" width="96" height="96" filterUnits="userSpaceOnUse" color-interpolation-filters="sRGB"><feFlood flood-opacity="0" result="BackgroundImageFix"/><feColorMatrix in="SourceAlpha" values="0 0 0 0 0 0 0 0 0 0 0 0 0 0 0 0 0 0 127 0"/><feOffset dy="4"/><feGaussianBlur stdDeviation="6"/><feColorMatrix values="0 0 0 0 0.823529 0 0 0 0 0.839216 0 0 0 0 0.85098 0 0 0 0.5 0"/><feBlend in2="BackgroundImageFix" result="effect1_dropShadow"/><feBlend in="SourceGraphic" in2="effect1_dropShadow" result="shape"/></filter></defs></svg>