<svg width="96" height="96" viewBox="0 0 96 96" fill="none" xmlns="http://www.w3.org/2000/svg"><rect x="12" y="8" width="72" height="72" rx="36" fill="#1998FF" filter="url(#a)"/><path d="M47.983 27.333c-9.2 0-16.65 7.467-16.65 16.667 0 9.2 7.45 16.666 16.65 16.666C57.2 60.666 64.666 53.2 64.666 44S57.2 27.333 47.983 27.333zm.017 30c-7.367 0-13.334-5.967-13.334-13.333 0-7.367 5.967-13.334 13.334-13.334 7.366 0 13.333 5.967 13.333 13.334 0 7.366-5.967 13.333-13.333 13.333z" fill="#fff"/><path d="M48.833 35.667h-2.5v10l8.75 5.25 1.25-2.05-7.5-4.45v-8.75z" fill="#fff"/><defs><filter id="a" x="0" y="0" width="96" height="96" filterUnits="userSpaceOnUse" color-interpolation-filters="sRGB"><feFlood flood-opacity="0" result="BackgroundImageFix"/><feColorMatrix in="SourceAlpha" values="0 0 0 0 0 0 0 0 0 0 0 0 0 0 0 0 0 0 127 0"/><feOffset dy="4"/><feGaussianBlur stdDeviation="6"/><feColorMatrix values="0 0 0 0 0.823529 0 0 0 0 0.839216 0 0 0 0 0.85098 0 0 0 0.5 0"/><feBlend in2="BackgroundImageFix" result="effect1_dropShadow"/><feBlend in="SourceGraphic" in2="effect1_dropShadow" result="shape"/></filter></defs></svg>