<svg width="96" height="96" viewBox="0 0 96 96" fill="none" xmlns="http://www.w3.org/2000/svg"><rect x="12" y="8" width="72" height="72" rx="36" fill="#1998FF" filter="url(#a)"/><path fill-rule="evenodd" clip-rule="evenodd" d="M68.59 48.815c.261-3.264-1.751-6.838-6.031-6.838-4.571 0-6.668 4.236-5.77 7.696l-15.912-.102c.665-3.44-1.314-7.594-5.928-7.594-4.28 0-6.392 3.715-5.904 7.03l-3.956-1.157L25 38.74s5.348-.71 8.254-2.518C36.263 34.35 38.06 31 46.058 31c5.809 0 10.63 4.09 13.563 7.542C66.129 38.865 73 41.43 73 41.43l-1.22 7.032-3.19.353zM45.695 33.719c-2.371 0-5.045.792-7.114 2.334l.289 1.805 16.542.504c-2.217-2.576-5.48-4.643-9.717-4.643zm-10.73 9.761c5.9 0 6.05 9.088.41 9.088-6.69 0-6.198-9.087-.41-9.087zm.187 6.439c2.35 0 2.288-3.787-.17-3.787-2.412 0-2.617 3.787.17 3.787zm27.423-6.438c5.9 0 6.048 9.087.409 9.087-6.69 0-6.197-9.087-.41-9.087zm.187 6.438c2.35 0 2.288-3.787-.17-3.787-2.413 0-2.618 3.787.17 3.787z" fill="#fff"/><defs><filter id="a" x="0" y="0" width="96" height="96" filterUnits="userSpaceOnUse" color-interpolation-filters="sRGB"><feFlood flood-opacity="0" result="BackgroundImageFix"/><feColorMatrix in="SourceAlpha" values="0 0 0 0 0 0 0 0 0 0 0 0 0 0 0 0 0 0 127 0"/><feOffset dy="4"/><feGaussianBlur stdDeviation="6"/><feColorMatrix values="0 0 0 0 0.823529 0 0 0 0 0.839216 0 0 0 0 0.85098 0 0 0 0.5 0"/><feBlend in2="BackgroundImageFix" result="effect1_dropShadow"/><feBlend in="SourceGraphic" in2="effect1_dropShadow" result="shape"/></filter></defs></svg>