<svg width="96" height="96" viewBox="0 0 96 96" fill="none" xmlns="http://www.w3.org/2000/svg"><rect x="12" y="8" width="72" height="72" rx="36" fill="#1998FF" filter="url(#a)"/><path fill-rule="evenodd" clip-rule="evenodd" d="M65.19 53.315l-33.382.245s-.826-7.103-.808-7.951c.06-2.776.944-4.4 2.79-4.964.45-1.328 1.218-3.545 1.793-4.896.9-2.115 2.42-4.264 6.574-4.88l1.336-3.787L53.504 27l.765 3.825c3.56.445 5.536 2.066 6.919 5.48.555 1.373 1.23 3.285 1.674 4.574 1.876.78 2.768 2.501 2.768 4.894 0 .866-.44 7.542-.44 7.542zm-27.548-2.583c4.535 0 4.564-7.096-.08-7.096-4.662 0-4.887 7.096.08 7.096zm20.77-13.051c-1.266-3.126-2.386-4.03-6.457-4.03H44.7c-4.877 0-5.601 1.736-6.358 3.514-.364.855-.824 2.117-1.219 3.246 4.913-.01 17.986-.048 22.311-.01a76.747 76.747 0 0 0-1.022-2.72zm1.033 6.843c-3.496 0-3.665 5.321.06 5.321 3.401 0 3.424-5.321-.06-5.321zM39.987 57.686c0 2.99-8.164 2.99-8.164 0V55.44l8.164-.277v2.523zm25.21 0c0 2.99-7.827 2.99-7.827 0v-2.434l7.826.168v2.266z" fill="#fff"/><defs><filter id="a" x="0" y="0" width="96" height="96" filterUnits="userSpaceOnUse" color-interpolation-filters="sRGB"><feFlood flood-opacity="0" result="BackgroundImageFix"/><feColorMatrix in="SourceAlpha" values="0 0 0 0 0 0 0 0 0 0 0 0 0 0 0 0 0 0 127 0"/><feOffset dy="4"/><feGaussianBlur stdDeviation="6"/><feColorMatrix values="0 0 0 0 0.823529 0 0 0 0 0.839216 0 0 0 0 0.85098 0 0 0 0.5 0"/><feBlend in2="BackgroundImageFix" result="effect1_dropShadow"/><feBlend in="SourceGraphic" in2="effect1_dropShadow" result="shape"/></filter></defs></svg>