<svg width="96" height="96" viewBox="0 0 96 96" fill="none" xmlns="http://www.w3.org/2000/svg"><rect x="12" y="8" width="72" height="72" rx="36" fill="#1998FF" filter="url(#a)"/><path fill-rule="evenodd" clip-rule="evenodd" d="M57.63 57.418l-18.614-.325s-1.46-4.76-5.242-4.76c0-.699-.774-10.013-.774-10.013s1.64-9.658 1.763-10.572c.34-2.519 1.1-3.396 3.27-3.752.464-.076 2.524-.396 4.662-.728.454-2.273 2.257-4.268 5.237-4.268 3.024 0 4.782 1.977 5.277 4.237 2.117.337 4.201.671 4.7.76 2.55.45 3.01 1.564 3.484 3.871.173.843 1.55 10.065 1.55 10.065s-.31 9.379-.31 10.787c-4.46 0-5.004 4.698-5.004 4.698zm-17.771-9.116c3.723 0 3.625-5.963-.27-5.963-3.82 0-4.145 5.963.27 5.963zm8.094-22.238c-2.985 0-3.239 4.642.211 4.642 2.908 0 2.833-4.642-.21-4.642zm10.73 6.965l-21.037-.157-.774 5.19 22.586-.23-.775-4.803zm-1.296 10.055c-2.866 0-3.11 4.472.203 4.472 2.792 0 2.718-4.472-.203-4.472zM41.405 59.32v1.447l-3.23 4.219-4.31-.096-.425-2.514 5.346-3.118 2.62.062zM63 62.443l-.278 2.579-4.126.194-4.04-4.468V59.26l3.043-.064L63 62.443z" fill="#fff"/><defs><filter id="a" x="0" y="0" width="96" height="96" filterUnits="userSpaceOnUse" color-interpolation-filters="sRGB"><feFlood flood-opacity="0" result="BackgroundImageFix"/><feColorMatrix in="SourceAlpha" values="0 0 0 0 0 0 0 0 0 0 0 0 0 0 0 0 0 0 127 0"/><feOffset dy="4"/><feGaussianBlur stdDeviation="6"/><feColorMatrix values="0 0 0 0 0.823529 0 0 0 0 0.839216 0 0 0 0 0.85098 0 0 0 0.5 0"/><feBlend in2="BackgroundImageFix" result="effect1_dropShadow"/><feBlend in="SourceGraphic" in2="effect1_dropShadow" result="shape"/></filter></defs></svg>