<svg width="24" height="24" viewBox="0 0 24 24" fill="none" xmlns="http://www.w3.org/2000/svg"><path d="M12 5H3v13h9V5z" stroke="#A3A3A3" stroke-width="1.5" stroke-miterlimit="10"/><path d="M9.917 13.75h-1.5v1.5h1.5v-1.5zm-3 0h-1.5v1.5h1.5v-1.5zm3-3h-1.5v1.5h1.5v-1.5zm-3 0h-1.5v1.5h1.5v-1.5zm3-3h-1.5v1.5h1.5v-1.5zm-3 0h-1.5v1.5h1.5v-1.5z" fill="#A3A3A3"/><path d="M12 18h9v-6.334L12 8.5" stroke="#A3A3A3" stroke-width="1.5" stroke-miterlimit="10"/><path d="M18.917 13.75h-1.5v1.5h1.5v-1.5zm-3 0h-1.5v1.5h1.5v-1.5z" fill="#A3A3A3"/></svg>