<svg id="Слой_1" data-name="Слой 1" xmlns="http://www.w3.org/2000/svg" viewBox="0 0 112.95838 42.95064"><defs><style>.cls-1{fill:none;stroke:#000}</style></defs><title>tariff-companion</title><path class="cls-1" d="M70.193 40.404l-27.955-.467a27.995 27.995 0 0 0 .454-3.113 10.418 10.418 0 1 0-20.836 0l.045 1.108-1.467-.163c-2.736-.304-6.611-1.185-7.826-3.961-.68-1.556-.1-3.41.247-4.95a4.528 4.528 0 0 1 1.147-2.48 3.175 3.175 0 0 0 1.063-1.413l.067-7.061a1.533 1.533 0 0 1 .94-1.695 32.018 32.018 0 0 0 4.048-3.39s3.765-2.73 4.424-3.107c0 0-1.036-1.036-.283-1.789 0 0 .189-.283 2.495-.612 0 0 23.436-2.354 32.754-1.977 0 0 11.624.518 17.648 2.965 2.092.85 3.991 1.6 5.954 2.419" transform="translate(-11.793 -3.844)"/><path class="cls-1" d="M78.002 19.774c-6.238-.508-13.551-1.118-13.551-1.118L62.945 8.77s8.377.377 13.648 2.825c0 0 2.475 1.071 4.902 2.196M46.35 21.305l-6.397-.528m18.85-12.195l.283 9.604L41.58 16.68s-.377-3.202.564-4.52c.942-1.318 1.977-2.73 1.977-2.73a85.783 85.783 0 0 1 14.683-.848zm-21.15 5.797a7.979 7.979 0 0 0-2.097 4.843 10.094 10.094 0 0 0 .975 4.394M26.35 37.046a5.925 5.925 0 0 0 11.848.218q.002-.11 0-.218a5.925 5.925 0 0 0-11.848-.218q-.002.11 0 .218z" transform="translate(-11.793 -3.844)"/><path class="cls-1" d="M23.851 37.046a8.423 8.423 0 1 0 16.846.001v-.001a8.424 8.424 0 0 0-8.421-8.427h-.002a8.425 8.425 0 0 0-8.423 8.427zm-1.425-22.673s1.317 2.072 2.824 2.354a30.563 30.563 0 0 1 4.659 1.177c.47.376.47.565.47.565a3.506 3.506 0 0 1-1.505.847 41.266 41.266 0 0 1-4.33.283c-.282 0-1.789.094-2.259.753a19.992 19.992 0 0 0-1.977 2.918l-3.2-.564s-1.317-.377-1.506-1.036a4.508 4.508 0 0 1 0-2.73c.377-.754.66-1.224.66-1.224s.187-.471 2.07-1.413c1.882-.942 4.094-1.93 4.094-1.93z" transform="translate(-11.793 -3.844)"/><circle class="cls-1" cx="101.458" cy="16.037" r="5.5"/><path class="cls-1" d="M102.251 39.787V33.95a5.145 5.145 0 0 1 5.13-5.13h11.74a5.145 5.145 0 0 1 5.13 5.13v5.836" transform="translate(-11.793 -3.844)"/><circle class="cls-1" cx="86.458" cy="12.037" r="5.5"/><path class="cls-1" d="M87.251 35.787v-5.835a5.145 5.145 0 0 1 5.13-5.13h11.74a5.107 5.107 0 0 1 3.403 1.299" transform="translate(-11.793 -3.844)"/><path class="cls-1" d="M76.659.199l-18.43 42.553"/></svg>